<?xml version="1.0" encoding="UTF-8" standalone="no"?>
<svg
   viewBox="0 0 153.89373 88.959127"
   version="1.1"
   id="svg6"
   width="153.89374"
   height="88.959129"
   xmlns="http://www.w3.org/2000/svg"
   xmlns:svg="http://www.w3.org/2000/svg">
  <defs
     id="defs10" />
  <g
     id="g16582"
     transform="scale(0.52259486)">
    <path
       fill="#42b883"
       d="M 120.83,0 98.16,39.26 75.49,0 H 0 L 98.16,170.02 196.32,0 Z"
       id="path2" />
    <g
       id="g16027"
       transform="translate(98.16,170.02)">
      <path
         fill="#42b883"
         d="M 120.83,0 98.16,-39.26 75.49,0 H 0 L 98.16,-170.02 196.32,0 Z"
         id="path2-7" />
      <path
         style="fill:#000000;stroke:none;stroke-width:1px;stroke-linecap:butt;stroke-linejoin:miter;stroke-opacity:1"
         d="M 75.009214,0.20580884 75.49,0"
         id="path7740" />
      <path
         style="fill:#35495e;fill-opacity:1;stroke:none;stroke-width:1px;stroke-linecap:butt;stroke-linejoin:miter;stroke-opacity:1"
         d="m 75.49,0 -0.480664,-169.61062 22.85846,0.0122 22.461944,39.0903 L 120.83,0 98.16,-39.26 Z"
         id="path7916" />
    </g>
    <path
       style="fill:#35495e;fill-opacity:1;stroke:none;stroke-width:1px;stroke-linecap:butt;stroke-linejoin:miter;stroke-opacity:1"
       d="M 75.49,0 V 130.83892 L 97.867796,169.5984 120.62342,169.6201 120.83,0 98.16,39.26 Z"
       id="path7916-1" />
    <rect
       style="fill:#85c3e7;fill-opacity:1;stroke:none;stroke-width:2;stroke-opacity:0.92549"
       id="rect16388"
       width="52.82"
       height="170.02"
       x="120.83"
       y="0" />
  </g>
  <g
     id="g17246"
     style="fill:#d7c593;fill-opacity:1;stroke:none">
    <path
       style="fill:#d7c593;stroke:none;stroke-width:1px;stroke-linecap:butt;stroke-linejoin:miter;stroke-opacity:1;fill-opacity:1"
       d="m 102.59582,68.334504 -0.1527,-68.11418846 11.7385,20.42838946 0.26143,68.202873 -11.84723,-20.517074"
       id="path17160" />
    <path
       style="fill:#d7c593;stroke:none;stroke-width:1px;stroke-linecap:butt;stroke-linejoin:miter;stroke-opacity:1;fill-opacity:1"
       d="M 39.450686,0 51.297911,20.517074 V 88.851578 L 39.450686,68.375747 V 0"
       id="path17162" />
  </g>
</svg>
