<?xml version="1.0" encoding="UTF-8" standalone="no"?>
<!-- a demo picture for the project's README.md -->

<svg
   width="1160.7321"
   height="372.46201"
   color="#000000"
   color-interpolation="srgb"
   color-interpolation-filters="linearrgb"
   flood-color="#000"
   flood-opacity="1"
   font-family="Roboto, sans-serif"
   font-size="16px"
   font-stretch="100%"
   font-weight="400"
   lighting-color="#FFF"
   overflow="hidden"
   text-decoration="rgb(0, 0, 0)"
   text-rendering="optimizelegibility"
   word-spacing="0"
   writing-mode="lr-tb"
   style="font-variant-ligatures:normal;font-variant-position:normal;font-variant-caps:normal;font-variant-numeric:normal;font-variant-alternates:normal;font-variant-east-asian:normal;font-feature-settings:normal;font-variation-settings:normal;text-indent:0;text-align:start;text-decoration-line:none;text-decoration-style:solid;text-decoration-color:#000000;text-orientation:mixed;isolation:auto"
   version="1.1"
   id="svg94"
   xmlns="http://www.w3.org/2000/svg"
   xmlns:svg="http://www.w3.org/2000/svg">
  <defs
     id="defs98" />
  <g
     fill="#e0ffff"
     fill-opacity="0.5"
     id="g10"
     transform="translate(0.86602643,-498.019)">
    <path
       d="M 233.963,847.609 378.242,726.545 271.154,636.688 Z M 686.587,563.436 H 472.413 L 616.69,684.5 Z M 982.016,748.917 1051.913,869.981 1159,684.5 Z M 233.963,847.609 H 448.138 L 378.242,726.545 Z"
       id="path2" />
    <path
       d="m 616.691,684.5 -144.278,-121.064 37.19,210.92 z M 107.087,499.02 0,684.5 h 139.793 z m 164.067,137.668 107.088,89.857 94.17,-163.109 z"
       id="path4" />
    <path
       d="M 509.604,774.357 472.413,563.437 378.242,726.545 Z M 472.413,563.436 295.429,499.02 271.154,636.69 Z M 509.604,774.357 710.862,847.609 616.691,684.5 Z M 826.38,563.436 H 686.587 l 107.088,185.48 z M 139.793,684.5 271.154,636.688 107.087,499.02 Z M 793.675,748.917 686.587,563.437 616.691,684.5 Z m 0,0 L 957.742,611.248 826.38,563.436 Z M 957.742,611.248 982.016,748.917 1159,684.5 Z m -686.588,25.44 -131.361,47.812 94.17,163.109 z"
       id="path6" />
    <path
       d="M 107.087,499.02 271.154,636.688 295.43,499.02 Z M 793.675,748.917 H 982.016 L 957.742,611.248 Z"
       id="path8" />
  </g>
  <g
     fill="#e0accb"
     id="g14"
     transform="translate(0.86602643,-498.019)">
    <path
       d="M 472.413,563.436 295.429,499.02 H 107.087 L 289.75,531.229 Z M 616.691,684.5 793.675,748.917 h 188.341 l -155.636,-27.443 -27.026,-4.766 -27.026,-4.765 z"
       id="path12" />
  </g>
  <g
     fill="#94d8bf"
     id="g18"
     transform="translate(0.86602643,-498.019)">
    <path
       d="M 957.742,611.248 826.38,563.436 H 472.413 l 194.385,34.276 44.064,7.77 104.844,18.486 104.845,18.487 44.063,7.77 L 1159,684.5 Z m -448.138,163.109 201.258,73.252 -40.119,-69.488 -136.865,-24.133 -28.76,-5.071 -126.876,-22.372 z m -275.641,73.252 h 214.175 l -15.844,-27.443 -136.865,-24.133 -50.792,-8.956 -50.792,-8.956 z m 830.866,0 -28.76,-5.071 15.844,27.443 z M 139.793,684.5 12.916,662.128 0,684.5 Z"
       id="path16" />
  </g>
  <g
     fill="#d7c593"
     id="g22"
     transform="translate(0.86602643,-498.019)">
    <path
       d="m 139.793,684.5 54.052,93.62 50.792,8.957 50.792,8.956 136.865,24.133 -54.052,-93.621 126.876,22.372 28.76,5.071 136.865,24.133 -54.052,-93.621 -126.876,-22.372 -67.51,-11.903 -126.876,-22.372 -22.032,-3.885 -22.031,-3.885 -126.877,-22.371 -67.51,-11.904 -44.063,76.32 z m 896.276,158.038 28.76,5.07 44.064,-76.32 -126.877,-22.371 z"
       id="path20" />
  </g>
  <path
     fill="#85c3e7"
     d="m 617.55703,186.481 155.637,27.443 27.026,4.765 27.026,4.766 155.636,27.443 126.87697,22.371 50.107,-86.788 -194.38597,-34.275 -44.063,-7.77 -104.845,-18.487 -104.844,-18.487 -44.064,-7.77 L 473.27903,65.417 290.61603,33.209 107.95303,1 57.846026,87.789 l 67.510004,11.904 126.876,22.371 22.031,3.885 22.032,3.885 126.876,22.372 67.51,11.903 z"
     id="path24" />
  <g
     id="g92"
     transform="translate(0.86602643,-498.019)">
    <path
       stroke="#d1d1d1"
       stroke-width="2"
       d="m 686.587,573.436 v 2"
       id="path26" />
    <path
       d="m 683.587,575.436 3,-12 3,12 z"
       id="path28" />
    <path
       stroke="#d1d1d1"
       stroke-width="2"
       d="M 686.587,563.436 H 472.413"
       id="path30" />
    <text
       font-size="12px"
       font-weight="700"
       text-anchor="end"
       transform="translate(1033.357,807.449)"
       id="text32">A</text>
    <path
       stroke="#d1d1d1"
       stroke-width="2"
       d="m 982.016,748.917 69.897,121.064 m -817.95,-22.372 h 214.175"
       id="path34" />
    <text
       font-size="12px"
       font-weight="700"
       text-anchor="end"
       transform="translate(69.936,601.76)"
       id="text36">B</text>
    <path
       stroke="#d1d1d1"
       stroke-width="2"
       d="M 107.087,499.019 0,684.5"
       id="path38" />
    <text
       font-size="12px"
       font-weight="700"
       text-anchor="end"
       transform="translate(408.798,797.077)"
       id="text40">A</text>
    <path
       stroke="#d1d1d1"
       stroke-width="2"
       d="M 448.138,847.609 378.242,726.545 M 472.413,563.436 295.429,499.019 m 217.595,265.941 0.684,-1.879"
       id="path42" />
    <path
       d="m 516.527,764.107 -6.923,10.25 1.285,-12.302 z"
       id="path44" />
    <path
       stroke="#d1d1d1"
       stroke-width="2"
       d="m 509.604,774.357 201.258,73.252"
       id="path46" />
    <text
       font-size="12px"
       font-weight="700"
       text-anchor="end"
       transform="translate(1101.064,775.24)"
       id="text48">B</text>
    <path
       stroke="#d1d1d1"
       stroke-width="2"
       d="M 1051.913,869.981 1159,684.5 M 826.38,563.436 H 686.587 M 616.691,684.5 793.675,748.917"
       id="path50" />
    <g
       id="g56">
      <text
         font-size="12px"
         font-weight="700"
         text-anchor="end"
         transform="translate(659.384,776.054)"
         id="text52">C</text>
      <path
         stroke="#d1d1d1"
         stroke-width="2"
         d="M 710.862,847.609 616.691,684.5"
         id="path54" />
    </g>
    <g
       id="g60">
      <path
         stroke="#d1d1d1"
         stroke-width="2"
         d="M 1159,684.5 957.742,611.248"
         id="path58" />
    </g>
    <g
       id="g64">
      <path
         stroke="#d1d1d1"
         stroke-width="2"
         d="M 793.675,748.917 H 982.016"
         id="path62" />
    </g>
    <g
       id="g68">
      <path
         stroke="#d1d1d1"
         stroke-width="2"
         d="M 0,684.5 H 139.793"
         id="path66" />
    </g>
    <g
       id="g72">
      <path
         stroke="#d1d1d1"
         stroke-width="2"
         d="M 295.429,499.019 H 107.087"
         id="path70" />
    </g>
    <g
       id="g78">
      <text
         font-size="12px"
         font-weight="700"
         text-anchor="end"
         transform="translate(203.27,764.054)"
         id="text74">C</text>
      <path
         stroke="#d1d1d1"
         stroke-width="2"
         d="m 139.793,684.5 94.17,163.109"
         id="path76" />
    </g>
    <g
       id="g82">
      <path
         stroke="#d1d1d1"
         stroke-width="2"
         d="m 378.242,726.545 131.362,47.812"
         id="path80" />
    </g>
    <g
       id="g90">
      <path
         stroke="#d1d1d1"
         stroke-width="2"
         d="m 954.322,620.645 -0.684,1.879"
         id="path84" />
      <path
         d="m 950.818,621.498 6.924,-10.25 -1.285,12.302 z"
         id="path86" />
      <path
         stroke="#d1d1d1"
         stroke-width="2"
         d="M 957.742,611.248 826.38,563.436"
         id="path88" />
    </g>
  </g>
</svg>
